<?xml version="1.0" encoding="UTF-8"?><svg id="Layer_1" xmlns="http://www.w3.org/2000/svg" xmlns:xlink="http://www.w3.org/1999/xlink" viewBox="0 0 1000 1000"><defs><linearGradient id="Teal" x1="564.808" y1="378.612" x2="655.634" y2="1115.205" gradientUnits="userSpaceOnUse"><stop offset="0" stop-color="#cff9f1"/><stop offset=".059" stop-color="#c5f5ec"/><stop offset=".157" stop-color="#acece1"/><stop offset=".282" stop-color="#82dece"/><stop offset=".427" stop-color="#49cab5"/><stop offset=".567" stop-color="#0cb59a"/><stop offset=".865" stop-color="#073e36"/><stop offset=".994" stop-color="#073e36"/></linearGradient><linearGradient id="Teal-2" x1="362.535" y1="660.917" x2="435.198" y2="-77.688" xlink:href="#Teal"/></defs><g id="Logo"><polygon points="920.134 163.068 894.56 133.451 322.43 627.48 240.225 698.463 191.691 740.373 101.909 817.899 79.866 836.932 105.44 866.549 670.153 378.924 894.777 184.963 920.134 163.068" fill="#cff9f1"/><path d="M893.667,263.455c-.76-1.737-1.954-3.755-3.677-6.11-.07-.096-.134-.191-.204-.287-1.739-2.817-3.505-5.613-5.301-8.386-20.021-37.024,10.19-63.619,10.291-63.708l-224.625,193.961v.01s44.293-31.88,85.138,24.574c2.885,3.987,5.168,8.015,5.975,9.995,10.934,28.264,18.213,58.095,18.213,86.496,0,154.352-125.127,279.478-279.478,279.478-42.239,0-79.884-5.679-114.523-20.516l-141.4,122.097c73.12,49.206,161.161,77.941,255.923,77.941,253.499,0,459-205.501,459-459,0-85.75-24.154-167.343-65.333-236.545Z" fill="url(#Teal)"/><path d="M500,220.522c39.438,0,76.963,8.177,110.982,22.919l144.515-124.788c-73.036-49.03-160.92-77.653-255.497-77.653-253.499,0-459,205.501-459,459,0,85.275,24.706,165.731,65.805,234.395.404.708.841,1.433,1.311,2.178.11.174.211.347.32.521.369.607.739,1.214,1.11,1.819,27.258,46.06-7.627,78.975-7.638,78.985l89.782-77.526,48.535-41.909h0l82.205-70.983c-12.509,9.952-49.201,33.061-72.856-15.363-.552-1.167-1.102-2.336-1.644-3.513-.194-.431-.387-.857-.578-1.269-15.575-34.132-26.829-71.884-26.829-107.335,0-154.352,125.127-279.478,279.478-279.478Z" fill="url(#Teal-2)"/></g></svg>