<?xml version="1.0" encoding="UTF-8"?><svg id="Layer_1" xmlns="http://www.w3.org/2000/svg" viewBox="0 0 1000 1000"><rect width="1000" height="1000" fill="#161616"/><rect width="1000" height="1000" fill="#0cb59a"/><g id="Logo-usd"><polygon points="784.502 271.84 767.184 251.784 379.755 586.326 324.089 634.393 291.223 662.773 230.425 715.271 215.498 728.16 232.816 748.216 615.222 418.012 767.331 286.667 784.502 271.84" fill="#fff"/><path d="M766.579,339.819c-.515-1.176-1.323-2.543-2.49-4.138-.048-.065-.091-.129-.138-.194-1.177-1.908-2.374-3.801-3.589-5.679-13.558-25.071,6.9-43.081,6.969-43.141l-152.109,131.344v.007s29.994-21.588,57.652,16.641c1.954,2.7,3.499,5.427,4.046,6.768,7.404,19.139,12.333,39.34,12.333,58.572,0,104.522-84.732,189.254-189.254,189.254-28.603,0-54.095-3.846-77.552-13.893l-95.751,82.68c49.515,33.321,109.133,52.779,173.303,52.779,171.661,0,310.82-139.159,310.82-310.82,0-58.067-16.357-113.32-44.241-160.181Z" fill="#fff"/><path d="M500,310.746c26.706,0,52.117,5.538,75.154,15.52l97.861-84.502c-49.458-33.202-108.97-52.584-173.015-52.584-171.661,0-310.82,139.159-310.82,310.82,0,57.746,16.73,112.228,44.561,158.725.274.479.569.97.888,1.475.075.118.143.235.216.353.25.411.5.822.752,1.232,18.459,31.191-5.165,53.479-5.172,53.486l60.798-52.498,32.866-28.38h0l55.666-48.067c-8.471,6.739-33.317,22.388-49.336-10.404-.374-.791-.746-1.582-1.113-2.379-.131-.292-.262-.58-.392-.859-10.547-23.113-18.168-48.677-18.168-72.684,0-104.522,84.732-189.254,189.254-189.254Z" fill="#fff"/></g></svg>